# Blender v2.69 (sub 0) OBJ File: ''
# www.blender.org
o Grid
v -9.999999 10.000000 0.000000
v -7.777777 10.000000 0.000000
v -5.555555 10.000000 0.000000
v -3.333333 10.000000 0.000000
v -1.111111 10.000000 0.000000
v 1.111111 10.000000 0.000000
v 3.333334 10.000000 0.000000
v 5.555556 10.000000 0.000000
v 7.777778 10.000000 0.000000
v 10.000000 10.000000 0.000000
v -9.999999 7.777778 0.000000
v -7.777777 7.777778 0.000000
v -5.555555 7.777778 0.000000
v -3.333333 7.777778 0.000000
v -1.111111 7.777778 0.000000
v 1.111111 7.777778 0.000000
v 3.333334 7.777778 0.000000
v 5.555556 7.777778 0.000000
v 7.777778 7.777778 0.000000
v 10.000000 7.777778 0.000000
v -9.999999 5.555555 0.000000
v -7.777777 5.555555 0.000000
v -5.555555 5.555555 0.000000
v -3.333333 5.555555 0.000000
v -1.111111 5.555555 0.000000
v 1.111111 5.555555 0.000000
v 3.333334 5.555555 0.000000
v 5.555556 5.555555 0.000000
v 7.777778 5.555555 0.000000
v 10.000000 5.555555 0.000000
v -9.999999 3.333334 0.000000
v -7.777777 3.333334 0.000000
v -5.555555 3.333334 0.000000
v -3.333333 3.333334 0.000000
v -1.111111 3.333334 0.000000
v 1.111111 3.333334 0.000000
v 3.333334 3.333334 0.000000
v 5.555556 3.333334 0.000000
v 7.777778 3.333334 0.000000
v 10.000000 3.333334 0.000000
v -9.999999 1.111112 0.000000
v -7.777777 1.111112 0.000000
v -5.555555 1.111112 0.000000
v -3.333333 1.111112 0.000000
v -1.111111 1.111112 0.000000
v 1.111111 1.111112 0.000000
v 3.333334 1.111112 0.000000
v 5.555556 1.111112 0.000000
v 7.777778 1.111112 0.000000
v 10.000000 1.111112 0.000000
v -9.999999 -1.111111 0.000000
v -7.777777 -1.111111 0.000000
v -5.555555 -1.111111 0.000000
v -3.333333 -1.111111 0.000000
v -1.111111 -1.111111 0.000000
v 1.111111 -1.111111 0.000000
v 3.333334 -1.111111 0.000000
v 5.555556 -1.111111 0.000000
v 7.777778 -1.111111 0.000000
v 10.000000 -1.111111 0.000000
v -9.999999 -3.333333 0.000000
v -7.777777 -3.333333 0.000000
v -5.555555 -3.333333 0.000000
v -3.333333 -3.333333 0.000000
v -1.111111 -3.333333 0.000000
v 1.111111 -3.333333 0.000000
v 3.333334 -3.333333 0.000000
v 5.555556 -3.333333 0.000000
v 7.777778 -3.333333 0.000000
v 10.000000 -3.333333 0.000000
v -9.999999 -5.555555 0.000000
v -7.777777 -5.555555 0.000000
v -5.555555 -5.555555 0.000000
v -3.333333 -5.555555 0.000000
v -1.111111 -5.555555 0.000000
v 1.111111 -5.555555 0.000000
v 3.333334 -5.555555 0.000000
v 5.555556 -5.555555 0.000000
v 7.777778 -5.555555 0.000000
v 10.000000 -5.555555 0.000000
v -9.999999 -7.777777 0.000000
v -7.777777 -7.777777 0.000000
v -5.555555 -7.777777 0.000000
v -3.333333 -7.777777 0.000000
v -1.111111 -7.777777 0.000000
v 1.111111 -7.777777 0.000000
v 3.333334 -7.777777 0.000000
v 5.555556 -7.777777 0.000000
v 7.777778 -7.777777 0.000000
v 10.000000 -7.777777 0.000000
v -9.999999 -9.999999 0.000000
v -7.777777 -9.999999 0.000000
v -5.555555 -9.999999 0.000000
v -3.333333 -9.999999 0.000000
v -1.111111 -9.999999 0.000000
v 1.111111 -9.999999 0.000000
v 3.333334 -9.999999 0.000000
v 5.555556 -9.999999 0.000000
v 7.777778 -9.999999 0.000000
v 10.000000 -9.999999 0.000000
vt 0.000442 0.000100
vt 0.111493 0.000138
vt 0.000404 0.111151
vt 0.222544 0.000176
vt 0.111455 0.111189
vt 0.333595 0.000214
vt 0.222506 0.111227
vt 0.444646 0.000252
vt 0.333557 0.111265
vt 0.555697 0.000291
vt 0.444607 0.111303
vt 0.666748 0.000329
vt 0.555658 0.111342
vt 0.777798 0.000368
vt 0.666709 0.111380
vt 0.888849 0.000406
vt 0.777760 0.111419
vt 0.999900 0.000445
vt 0.888811 0.111457
vt 0.000366 0.222201
vt 0.111417 0.222239
vt 0.222468 0.222278
vt 0.333518 0.222316
vt 0.444569 0.222354
vt 0.555620 0.222393
vt 0.666671 0.222431
vt 0.777721 0.222469
vt 0.999861 0.111496
vt 0.888772 0.222508
vt 0.000328 0.333252
vt 0.111379 0.333290
vt 0.222430 0.333328
vt 0.333480 0.333367
vt 0.444531 0.333405
vt 0.555582 0.333443
vt 0.666632 0.333482
vt 0.777683 0.333520
vt 0.999822 0.222547
vt 0.888733 0.333558
vt 0.000290 0.444303
vt 0.111341 0.444341
vt 0.222391 0.444379
vt 0.333442 0.444417
vt 0.444493 0.444456
vt 0.555543 0.444494
vt 0.666594 0.444532
vt 0.777644 0.444570
vt 0.999783 0.333597
vt 0.888695 0.444609
vt 0.000252 0.555354
vt 0.111303 0.555392
vt 0.222353 0.555430
vt 0.333404 0.555468
vt 0.444454 0.555506
vt 0.555505 0.555544
vt 0.666556 0.555583
vt 0.777606 0.555621
vt 0.999745 0.444647
vt 0.888656 0.555659
vt 0.000214 0.666405
vt 0.111264 0.666443
vt 0.222315 0.666481
vt 0.333366 0.666519
vt 0.444416 0.666557
vt 0.555467 0.666595
vt 0.666517 0.666633
vt 0.777568 0.666671
vt 0.999707 0.555697
vt 0.888618 0.666710
vt 0.000176 0.777456
vt 0.111226 0.777494
vt 0.222277 0.777532
vt 0.333328 0.777570
vt 0.444378 0.777608
vt 0.555429 0.777646
vt 0.666479 0.777684
vt 0.777530 0.777722
vt 0.999668 0.666748
vt 0.888580 0.777760
vt 0.000138 0.888507
vt 0.111189 0.888544
vt 0.222239 0.888582
vt 0.333290 0.888620
vt 0.444340 0.888658
vt 0.555391 0.888696
vt 0.666441 0.888734
vt 0.777492 0.888772
vt 0.999630 0.777798
vt 0.888542 0.888810
vt 0.000100 0.999557
vt 0.111151 0.999595
vt 0.222201 0.999633
vt 0.333252 0.999671
vt 0.444302 0.999709
vt 0.555353 0.999747
vt 0.666404 0.999785
vt 0.777454 0.999823
vt 0.999592 0.888848
vt 0.888504 0.999860
vt 0.999555 0.999898
vn 0.000000 0.000000 1.000000
vn 0.000000 0.000000 0.999969
s 1
f 10/1/1 9/2/1 20/3/1
f 9/2/1 8/4/1 19/5/1
f 8/4/1 7/6/1 18/7/1
f 7/6/1 6/8/1 17/9/1
f 6/8/1 5/10/1 16/11/1
f 5/10/1 4/12/1 15/13/1
f 4/12/1 3/14/1 14/15/1
f 3/14/1 2/16/1 13/17/1
f 2/16/1 1/18/1 12/19/1
f 20/3/1 19/5/1 30/20/1
f 19/5/1 18/7/1 29/21/2
f 18/7/1 17/9/1 28/22/1
f 17/9/1 16/11/1 27/23/1
f 16/11/1 15/13/1 26/24/1
f 15/13/1 14/15/1 25/25/2
f 14/15/1 13/17/1 24/26/1
f 13/17/1 12/19/1 23/27/2
f 12/19/1 11/28/1 22/29/2
f 30/20/1 29/21/2 40/30/1
f 29/21/2 28/22/1 39/31/1
f 28/22/1 27/23/1 38/32/1
f 27/23/1 26/24/1 37/33/1
f 26/24/1 25/25/2 36/34/1
f 25/25/2 24/26/1 35/35/1
f 24/26/1 23/27/2 34/36/1
f 23/27/2 22/29/2 33/37/1
f 22/29/2 21/38/1 32/39/1
f 40/30/1 39/31/1 50/40/1
f 39/31/1 38/32/1 49/41/1
f 38/32/1 37/33/1 48/42/1
f 37/33/1 36/34/1 47/43/1
f 36/34/1 35/35/1 46/44/1
f 35/35/1 34/36/1 45/45/1
f 34/36/1 33/37/1 44/46/1
f 33/37/1 32/39/1 43/47/1
f 32/39/1 31/48/1 42/49/1
f 50/40/1 49/41/1 60/50/1
f 49/41/1 48/42/1 59/51/1
f 48/42/1 47/43/1 58/52/1
f 47/43/1 46/44/1 57/53/1
f 46/44/1 45/45/1 56/54/1
f 45/45/1 44/46/1 55/55/1
f 44/46/1 43/47/1 54/56/1
f 43/47/1 42/49/1 53/57/1
f 42/49/1 41/58/1 52/59/1
f 60/50/1 59/51/1 70/60/1
f 59/51/1 58/52/1 69/61/1
f 58/52/1 57/53/1 68/62/1
f 57/53/1 56/54/1 67/63/1
f 56/54/1 55/55/1 66/64/1
f 55/55/1 54/56/1 65/65/1
f 54/56/1 53/57/1 64/66/1
f 53/57/1 52/59/1 63/67/1
f 52/59/1 51/68/1 62/69/1
f 70/60/1 69/61/1 80/70/1
f 69/61/1 68/62/1 79/71/2
f 68/62/1 67/63/1 78/72/1
f 67/63/1 66/64/1 77/73/1
f 66/64/1 65/65/1 76/74/1
f 65/65/1 64/66/1 75/75/2
f 64/66/1 63/67/1 74/76/1
f 63/67/1 62/69/1 73/77/2
f 62/69/1 61/78/1 72/79/2
f 80/70/1 79/71/2 90/80/1
f 79/71/2 78/72/1 89/81/2
f 78/72/1 77/73/1 88/82/2
f 77/73/1 76/74/1 87/83/2
f 76/74/1 75/75/2 86/84/1
f 75/75/2 74/76/1 85/85/2
f 74/76/1 73/77/2 84/86/2
f 73/77/2 72/79/2 83/87/2
f 72/79/2 71/88/1 82/89/2
f 90/80/1 89/81/2 100/90/1
f 89/81/2 88/82/2 99/91/1
f 88/82/2 87/83/2 98/92/1
f 87/83/2 86/84/1 97/93/1
f 86/84/1 85/85/2 96/94/1
f 85/85/2 84/86/2 95/95/1
f 84/86/2 83/87/2 94/96/1
f 83/87/2 82/89/2 93/97/1
f 82/89/2 81/98/1 92/99/1
f 9/2/1 19/5/1 20/3/1
f 8/4/1 18/7/1 19/5/1
f 7/6/1 17/9/1 18/7/1
f 6/8/1 16/11/1 17/9/1
f 5/10/1 15/13/1 16/11/1
f 4/12/1 14/15/1 15/13/1
f 3/14/1 13/17/1 14/15/1
f 2/16/1 12/19/1 13/17/1
f 1/18/1 11/28/1 12/19/1
f 19/5/1 29/21/2 30/20/1
f 18/7/1 28/22/1 29/21/2
f 17/9/1 27/23/1 28/22/1
f 16/11/1 26/24/1 27/23/1
f 15/13/1 25/25/2 26/24/1
f 14/15/1 24/26/1 25/25/2
f 13/17/1 23/27/2 24/26/1
f 12/19/1 22/29/2 23/27/2
f 11/28/1 21/38/1 22/29/2
f 29/21/2 39/31/1 40/30/1
f 28/22/1 38/32/1 39/31/1
f 27/23/1 37/33/1 38/32/1
f 26/24/1 36/34/1 37/33/1
f 25/25/2 35/35/1 36/34/1
f 24/26/1 34/36/1 35/35/1
f 23/27/2 33/37/1 34/36/1
f 22/29/2 32/39/1 33/37/1
f 21/38/1 31/48/1 32/39/1
f 39/31/1 49/41/1 50/40/1
f 38/32/1 48/42/1 49/41/1
f 37/33/1 47/43/1 48/42/1
f 36/34/1 46/44/1 47/43/1
f 35/35/1 45/45/1 46/44/1
f 34/36/1 44/46/1 45/45/1
f 33/37/1 43/47/1 44/46/1
f 32/39/1 42/49/1 43/47/1
f 31/48/1 41/58/1 42/49/1
f 49/41/1 59/51/1 60/50/1
f 48/42/1 58/52/1 59/51/1
f 47/43/1 57/53/1 58/52/1
f 46/44/1 56/54/1 57/53/1
f 45/45/1 55/55/1 56/54/1
f 44/46/1 54/56/1 55/55/1
f 43/47/1 53/57/1 54/56/1
f 42/49/1 52/59/1 53/57/1
f 41/58/1 51/68/1 52/59/1
f 59/51/1 69/61/1 70/60/1
f 58/52/1 68/62/1 69/61/1
f 57/53/1 67/63/1 68/62/1
f 56/54/1 66/64/1 67/63/1
f 55/55/1 65/65/1 66/64/1
f 54/56/1 64/66/1 65/65/1
f 53/57/1 63/67/1 64/66/1
f 52/59/1 62/69/1 63/67/1
f 51/68/1 61/78/1 62/69/1
f 69/61/1 79/71/2 80/70/1
f 68/62/1 78/72/1 79/71/2
f 67/63/1 77/73/1 78/72/1
f 66/64/1 76/74/1 77/73/1
f 65/65/1 75/75/2 76/74/1
f 64/66/1 74/76/1 75/75/2
f 63/67/1 73/77/2 74/76/1
f 62/69/1 72/79/2 73/77/2
f 61/78/1 71/88/1 72/79/2
f 79/71/2 89/81/2 90/80/1
f 78/72/1 88/82/2 89/81/2
f 77/73/1 87/83/2 88/82/2
f 76/74/1 86/84/1 87/83/2
f 75/75/2 85/85/2 86/84/1
f 74/76/1 84/86/2 85/85/2
f 73/77/2 83/87/2 84/86/2
f 72/79/2 82/89/2 83/87/2
f 71/88/1 81/98/1 82/89/2
f 89/81/2 99/91/1 100/90/1
f 88/82/2 98/92/1 99/91/1
f 87/83/2 97/93/1 98/92/1
f 86/84/1 96/94/1 97/93/1
f 85/85/2 95/95/1 96/94/1
f 84/86/2 94/96/1 95/95/1
f 83/87/2 93/97/1 94/96/1
f 82/89/2 92/99/1 93/97/1
f 81/98/1 91/100/1 92/99/1
